<svg xmlns="http://www.w3.org/2000/svg" xmlns:xlink="http://www.w3.org/1999/xlink" width="1366" height="946" viewBox="0 0 1366 946">
  <defs>
    <clipPath id="clip-path">
      <rect width="35.375" height="35.375" fill="none"/>
    </clipPath>
    <clipPath id="clip-path-2">
      <rect width="536" height="160" fill="none"/>
    </clipPath>
    <clipPath id="clip-dark_-_modal">
      <rect width="1366" height="946"/>
    </clipPath>
  </defs>
  <g id="dark_-_modal" data-name="dark - modal" clip-path="url(#clip-dark_-_modal)">
    <rect id="Rectangle_16" data-name="Rectangle 16" width="1366" height="946" opacity="0.85"/>
    <g id="modal" transform="translate(-94 -2)">
      <g id="Group_29" data-name="Group 29" transform="translate(417 157.476)">
        <rect id="modal_bg" width="720" height="650" fill="#bbffb2"/>
        <g id="sluit_modal" data-name="sluit modal" transform="translate(664.625 19.576)" clip-path="url(#clip-path)">
          <path id="Path_46" data-name="Path 46" d="M31.543,31.543a2.756,2.756,0,0,1,3.9,0L48.424,44.528,61.409,31.543a2.755,2.755,0,0,1,3.9,3.9L52.32,48.424,65.305,61.409a2.755,2.755,0,0,1-3.9,3.9L48.424,52.32,35.439,65.305a2.755,2.755,0,0,1-3.9-3.9L44.528,48.424,31.543,35.439a2.756,2.756,0,0,1,0-3.9Z" transform="translate(-30.737 -30.737)" fill="#119100"/>
        </g>
        <g id="Repeat_Grid_3" data-name="Repeat Grid 3" transform="translate(92 245)" clip-path="url(#clip-path-2)">
          <g transform="translate(-415 -540)">
            <text id="h3" transform="translate(415 540)" fill="#119100" font-size="60" font-family="PlayfairDisplay-Regular, Playfair Display"><tspan x="104.45" y="65">Maak hier je </tspan><tspan x="103.894" y="145">eigen modal</tspan></text>
          </g>
        </g>
      </g>
    </g>
  </g>
</svg>
